<svg width="66" height="64" viewBox="0 0 66 64" fill="none" xmlns="http://www.w3.org/2000/svg">
<g clip-path="url(#clip0_17_36)">
<path d="M14.1795 38.524L11.2635 45.772C11.2315 45.852 11.1875 45.912 11.1315 45.952C11.0755 45.992 11.0115 46.012 10.9395 46.012C10.8275 46.012 10.7435 45.984 10.6875 45.928C10.6315 45.864 10.5995 45.788 10.5915 45.7C10.5835 45.66 10.5875 45.612 10.6035 45.556L13.7715 37.804C13.8115 37.716 13.8595 37.656 13.9155 37.624C13.9795 37.584 14.0515 37.564 14.1315 37.564C14.2115 37.564 14.2795 37.588 14.3355 37.636C14.3995 37.676 14.4475 37.732 14.4795 37.804L17.6355 45.52C17.6515 45.568 17.6595 45.616 17.6595 45.664C17.6595 45.776 17.6235 45.864 17.5515 45.928C17.4795 45.984 17.3955 46.012 17.2995 46.012C17.2195 46.012 17.1475 45.992 17.0835 45.952C17.0275 45.904 16.9835 45.844 16.9515 45.772L13.9635 38.476L14.1795 38.524ZM11.9595 43.576L12.2595 42.868H15.9795L16.1235 43.576H11.9595ZM19.441 46C19.329 46 19.241 45.964 19.177 45.892C19.113 45.82 19.081 45.736 19.081 45.64V40.264C19.081 40.168 19.113 40.084 19.177 40.012C19.249 39.94 19.337 39.904 19.441 39.904C19.545 39.904 19.629 39.94 19.693 40.012C19.765 40.084 19.801 40.168 19.801 40.264V42.064L19.621 42.1C19.645 41.82 19.713 41.544 19.825 41.272C19.945 40.992 20.105 40.736 20.305 40.504C20.505 40.272 20.741 40.084 21.013 39.94C21.293 39.796 21.605 39.724 21.949 39.724C22.093 39.724 22.233 39.756 22.369 39.82C22.505 39.876 22.573 39.972 22.573 40.108C22.573 40.228 22.541 40.32 22.477 40.384C22.413 40.448 22.337 40.48 22.249 40.48C22.177 40.48 22.097 40.46 22.009 40.42C21.929 40.38 21.821 40.36 21.685 40.36C21.461 40.36 21.237 40.428 21.013 40.564C20.789 40.692 20.585 40.868 20.401 41.092C20.217 41.316 20.069 41.568 19.957 41.848C19.853 42.12 19.801 42.396 19.801 42.676V45.64C19.801 45.736 19.765 45.82 19.693 45.892C19.621 45.964 19.537 46 19.441 46ZM26.2487 39.724C26.6327 39.724 26.9847 39.768 27.3047 39.856C27.6247 39.936 27.8807 40.048 28.0727 40.192C28.2727 40.336 28.3727 40.492 28.3727 40.66C28.3727 40.74 28.3447 40.82 28.2887 40.9C28.2327 40.972 28.1567 41.008 28.0607 41.008C27.9647 41.008 27.8847 40.984 27.8207 40.936C27.7647 40.888 27.7047 40.832 27.6407 40.768C27.5847 40.704 27.5007 40.644 27.3887 40.588C27.2847 40.54 27.1367 40.496 26.9447 40.456C26.7527 40.416 26.5327 40.396 26.2847 40.396C25.8367 40.396 25.4327 40.508 25.0727 40.732C24.7127 40.956 24.4287 41.26 24.2207 41.644C24.0127 42.02 23.9087 42.444 23.9087 42.916C23.9087 43.396 24.0087 43.828 24.2087 44.212C24.4087 44.596 24.6847 44.9 25.0367 45.124C25.3887 45.34 25.8007 45.448 26.2727 45.448C26.5927 45.448 26.8407 45.42 27.0167 45.364C27.1927 45.308 27.3447 45.244 27.4727 45.172C27.6247 45.084 27.7327 45 27.7967 44.92C27.8687 44.832 27.9607 44.788 28.0727 44.788C28.1767 44.788 28.2527 44.82 28.3007 44.884C28.3567 44.94 28.3847 45.016 28.3847 45.112C28.3847 45.24 28.2887 45.384 28.0967 45.544C27.9127 45.696 27.6567 45.832 27.3287 45.952C27.0007 46.064 26.6247 46.12 26.2007 46.12C25.6007 46.12 25.0727 45.98 24.6167 45.7C24.1687 45.42 23.8167 45.04 23.5607 44.56C23.3127 44.072 23.1887 43.524 23.1887 42.916C23.1887 42.332 23.3167 41.8 23.5727 41.32C23.8287 40.84 24.1847 40.456 24.6407 40.168C25.1047 39.872 25.6407 39.724 26.2487 39.724ZM32.6756 39.82C33.1796 39.82 33.5876 39.928 33.8996 40.144C34.2116 40.36 34.4396 40.652 34.5836 41.02C34.7356 41.388 34.8116 41.796 34.8116 42.244V45.64C34.8116 45.736 34.7756 45.82 34.7036 45.892C34.6316 45.964 34.5476 46 34.4516 46C34.3396 46 34.2516 45.964 34.1876 45.892C34.1236 45.82 34.0916 45.736 34.0916 45.64V42.244C34.0916 41.916 34.0396 41.62 33.9356 41.356C33.8396 41.092 33.6796 40.884 33.4556 40.732C33.2316 40.572 32.9316 40.492 32.5556 40.492C32.2196 40.492 31.8996 40.572 31.5956 40.732C31.2996 40.884 31.0596 41.092 30.8756 41.356C30.6916 41.62 30.5996 41.916 30.5996 42.244V45.64C30.5996 45.736 30.5636 45.82 30.4916 45.892C30.4196 45.964 30.3356 46 30.2396 46C30.1276 46 30.0396 45.964 29.9756 45.892C29.9116 45.82 29.8796 45.736 29.8796 45.64V37.48C29.8796 37.384 29.9116 37.3 29.9756 37.228C30.0476 37.156 30.1356 37.12 30.2396 37.12C30.3436 37.12 30.4276 37.156 30.4916 37.228C30.5636 37.3 30.5996 37.384 30.5996 37.48V41.368L30.3236 41.788C30.3396 41.54 30.4156 41.3 30.5516 41.068C30.6956 40.828 30.8796 40.616 31.1036 40.432C31.3276 40.24 31.5756 40.092 31.8476 39.988C32.1196 39.876 32.3956 39.82 32.6756 39.82ZM37.516 45.64C37.516 45.736 37.48 45.82 37.408 45.892C37.336 45.964 37.252 46 37.156 46C37.052 46 36.964 45.964 36.892 45.892C36.828 45.82 36.796 45.736 36.796 45.64V40.12C36.796 40.024 36.828 39.94 36.892 39.868C36.964 39.796 37.052 39.76 37.156 39.76C37.26 39.76 37.344 39.796 37.408 39.868C37.48 39.94 37.516 40.024 37.516 40.12V45.64ZM37.156 38.956C36.988 38.956 36.86 38.92 36.772 38.848C36.692 38.768 36.652 38.656 36.652 38.512V38.392C36.652 38.248 36.696 38.14 36.784 38.068C36.88 37.988 37.008 37.948 37.168 37.948C37.32 37.948 37.436 37.988 37.516 38.068C37.604 38.14 37.648 38.248 37.648 38.392V38.512C37.648 38.656 37.604 38.768 37.516 38.848C37.436 38.92 37.316 38.956 37.156 38.956ZM39.3624 39.736C39.4264 39.736 39.4904 39.756 39.5544 39.796C39.6184 39.836 39.6664 39.896 39.6984 39.976L41.7984 44.968L41.6424 45.064L43.7904 39.976C43.8544 39.816 43.9704 39.74 44.1384 39.748C44.2184 39.748 44.2944 39.776 44.3664 39.832C44.4384 39.88 44.4744 39.952 44.4744 40.048C44.4744 40.096 44.4664 40.136 44.4504 40.168C44.4424 40.192 44.4344 40.22 44.4264 40.252L42.0744 45.772C42.0104 45.916 41.9024 45.992 41.7504 46C41.6784 46.008 41.6064 45.992 41.5344 45.952C41.4704 45.904 41.4224 45.844 41.3904 45.772L39.0264 40.252C39.0184 40.236 39.0104 40.212 39.0024 40.18C38.9944 40.148 38.9904 40.116 38.9904 40.084C38.9904 39.996 39.0224 39.916 39.0864 39.844C39.1504 39.772 39.2424 39.736 39.3624 39.736ZM48.6913 46.12C48.0753 46.12 47.5313 45.988 47.0593 45.724C46.5873 45.46 46.2193 45.092 45.9553 44.62C45.6913 44.148 45.5593 43.596 45.5593 42.964C45.5593 42.284 45.6913 41.704 45.9553 41.224C46.2273 40.744 46.5753 40.376 46.9993 40.12C47.4313 39.856 47.8873 39.724 48.3673 39.724C48.7193 39.724 49.0593 39.788 49.3873 39.916C49.7233 40.036 50.0193 40.22 50.2753 40.468C50.5393 40.708 50.7473 41.004 50.8993 41.356C51.0593 41.708 51.1473 42.116 51.1633 42.58C51.1553 42.676 51.1153 42.76 51.0433 42.832C50.9713 42.896 50.8873 42.928 50.7913 42.928H45.9793L45.8353 42.28H50.5633L50.4073 42.424V42.184C50.3753 41.808 50.2553 41.488 50.0473 41.224C49.8393 40.96 49.5873 40.76 49.2913 40.624C48.9953 40.488 48.6873 40.42 48.3673 40.42C48.1273 40.42 47.8793 40.468 47.6233 40.564C47.3753 40.66 47.1473 40.812 46.9393 41.02C46.7393 41.22 46.5753 41.48 46.4473 41.8C46.3193 42.112 46.2553 42.484 46.2553 42.916C46.2553 43.388 46.3513 43.816 46.5433 44.2C46.7353 44.584 47.0113 44.888 47.3713 45.112C47.7393 45.336 48.1753 45.448 48.6793 45.448C48.9593 45.448 49.2113 45.408 49.4353 45.328C49.6593 45.248 49.8553 45.144 50.0233 45.016C50.1913 44.88 50.3313 44.74 50.4433 44.596C50.5313 44.524 50.6193 44.488 50.7073 44.488C50.7873 44.488 50.8553 44.52 50.9113 44.584C50.9753 44.648 51.0073 44.72 51.0073 44.8C51.0073 44.896 50.9673 44.98 50.8873 45.052C50.6473 45.34 50.3353 45.592 49.9513 45.808C49.5673 46.016 49.1473 46.12 48.6913 46.12Z" fill="white"/>
<path d="M40.89 19.445L26 26.89L28.7919 19.445L26 12L40.89 19.445Z" stroke="white" stroke-linecap="round" stroke-linejoin="round"/>
<path d="M28.7429 19.2695H40.89" stroke="white" stroke-linecap="round" stroke-linejoin="round"/>
</g>
<defs>
<clipPath id="clip0_17_36">
<rect width="66" height="64" fill="white"/>
</clipPath>
</defs>
</svg>
