<svg width="58" height="58" viewBox="0 0 58 58" fill="none" xmlns="http://www.w3.org/2000/svg">
<g clip-path="url(#clip0_3_133)">
<path d="M3.26945 46.12C2.76545 46.12 2.31345 45.98 1.91345 45.7C1.51345 45.42 1.20945 45.052 1.00145 44.596C0.961452 44.524 0.941452 44.46 0.941452 44.404C0.941452 44.3 0.981452 44.22 1.06145 44.164C1.14145 44.1 1.22145 44.068 1.30145 44.068C1.38145 44.068 1.44545 44.088 1.49345 44.128C1.54945 44.168 1.59745 44.216 1.63745 44.272C1.78945 44.608 2.00945 44.88 2.29745 45.088C2.58545 45.296 2.90945 45.4 3.26945 45.4C3.63745 45.4 3.96145 45.324 4.24145 45.172C4.52145 45.012 4.73745 44.792 4.88945 44.512C5.04945 44.232 5.12945 43.912 5.12945 43.552V37.96C5.12945 37.864 5.16545 37.78 5.23745 37.708C5.31745 37.636 5.40945 37.6 5.51345 37.6C5.62545 37.6 5.71345 37.636 5.77745 37.708C5.84945 37.78 5.88545 37.864 5.88545 37.96V43.552C5.88545 44.048 5.77345 44.492 5.54945 44.884C5.32545 45.268 5.01745 45.572 4.62545 45.796C4.23345 46.012 3.78145 46.12 3.26945 46.12ZM13.7966 42.928C13.7966 43.536 13.6646 44.084 13.4006 44.572C13.1366 45.052 12.7766 45.432 12.3206 45.712C11.8646 45.984 11.3446 46.12 10.7606 46.12C10.1926 46.12 9.67664 45.984 9.21264 45.712C8.75664 45.432 8.39264 45.052 8.12064 44.572C7.85664 44.084 7.72464 43.536 7.72464 42.928C7.72464 42.312 7.85664 41.764 8.12064 41.284C8.39264 40.804 8.75664 40.424 9.21264 40.144C9.67664 39.864 10.1926 39.724 10.7606 39.724C11.3446 39.724 11.8646 39.864 12.3206 40.144C12.7766 40.424 13.1366 40.804 13.4006 41.284C13.6646 41.764 13.7966 42.312 13.7966 42.928ZM13.0766 42.928C13.0766 42.44 12.9766 42.008 12.7766 41.632C12.5766 41.248 12.3006 40.948 11.9486 40.732C11.6046 40.508 11.2086 40.396 10.7606 40.396C10.3286 40.396 9.93664 40.508 9.58464 40.732C9.23264 40.948 8.95264 41.248 8.74464 41.632C8.54464 42.008 8.44464 42.44 8.44464 42.928C8.44464 43.416 8.54464 43.848 8.74464 44.224C8.95264 44.6 9.23264 44.9 9.58464 45.124C9.93664 45.34 10.3286 45.448 10.7606 45.448C11.2086 45.448 11.6046 45.34 11.9486 45.124C12.3006 44.9 12.5766 44.6 12.7766 44.224C12.9766 43.848 13.0766 43.416 13.0766 42.928ZM16.1428 45.64C16.1428 45.736 16.1068 45.82 16.0348 45.892C15.9628 45.964 15.8788 46 15.7828 46C15.6788 46 15.5908 45.964 15.5188 45.892C15.4548 45.82 15.4228 45.736 15.4228 45.64V40.12C15.4228 40.024 15.4548 39.94 15.5188 39.868C15.5908 39.796 15.6788 39.76 15.7828 39.76C15.8868 39.76 15.9708 39.796 16.0348 39.868C16.1068 39.94 16.1428 40.024 16.1428 40.12V45.64ZM15.7828 38.956C15.6148 38.956 15.4868 38.92 15.3988 38.848C15.3188 38.768 15.2788 38.656 15.2788 38.512V38.392C15.2788 38.248 15.3228 38.14 15.4108 38.068C15.5068 37.988 15.6348 37.948 15.7948 37.948C15.9468 37.948 16.0628 37.988 16.1428 38.068C16.2308 38.14 16.2748 38.248 16.2748 38.392V38.512C16.2748 38.656 16.2308 38.768 16.1428 38.848C16.0628 38.92 15.9428 38.956 15.7828 38.956ZM21.0252 39.724C21.5532 39.724 21.9732 39.832 22.2852 40.048C22.6052 40.256 22.8332 40.544 22.9692 40.912C23.1132 41.272 23.1852 41.672 23.1852 42.112V45.64C23.1852 45.736 23.1492 45.82 23.0772 45.892C23.0052 45.964 22.9212 46 22.8252 46C22.7132 46 22.6252 45.964 22.5612 45.892C22.4972 45.82 22.4652 45.736 22.4652 45.64V42.148C22.4652 41.828 22.4132 41.536 22.3092 41.272C22.2052 41.008 22.0332 40.796 21.7932 40.636C21.5612 40.476 21.2532 40.396 20.8692 40.396C20.5252 40.396 20.1972 40.476 19.8852 40.636C19.5812 40.796 19.3332 41.008 19.1412 41.272C18.9492 41.536 18.8532 41.828 18.8532 42.148V45.64C18.8532 45.736 18.8172 45.82 18.7452 45.892C18.6732 45.964 18.5892 46 18.4932 46C18.3812 46 18.2932 45.964 18.2292 45.892C18.1652 45.82 18.1332 45.736 18.1332 45.64V40.264C18.1332 40.168 18.1652 40.084 18.2292 40.012C18.3012 39.94 18.3892 39.904 18.4932 39.904C18.5972 39.904 18.6812 39.94 18.7452 40.012C18.8172 40.084 18.8532 40.168 18.8532 40.264V41.272L18.5772 41.704C18.5932 41.448 18.6732 41.204 18.8172 40.972C18.9692 40.732 19.1612 40.52 19.3932 40.336C19.6252 40.144 19.8812 39.996 20.1612 39.892C20.4492 39.78 20.7372 39.724 21.0252 39.724ZM29.132 37.6H33.536C33.632 37.6 33.716 37.636 33.788 37.708C33.86 37.772 33.896 37.856 33.896 37.96C33.896 38.064 33.86 38.148 33.788 38.212C33.716 38.276 33.632 38.308 33.536 38.308H29.408L29.528 38.104V41.476L29.396 41.32H32.996C33.092 41.32 33.176 41.356 33.248 41.428C33.32 41.5 33.356 41.584 33.356 41.68C33.356 41.784 33.32 41.868 33.248 41.932C33.176 41.996 33.092 42.028 32.996 42.028H29.42L29.528 41.908V45.364L29.468 45.292H33.536C33.632 45.292 33.716 45.328 33.788 45.4C33.86 45.472 33.896 45.556 33.896 45.652C33.896 45.756 33.86 45.84 33.788 45.904C33.716 45.968 33.632 46 33.536 46H29.132C29.036 46 28.952 45.964 28.88 45.892C28.808 45.82 28.772 45.736 28.772 45.64V37.96C28.772 37.864 28.808 37.78 28.88 37.708C28.952 37.636 29.036 37.6 29.132 37.6ZM35.2125 39.736C35.2765 39.736 35.3405 39.756 35.4045 39.796C35.4685 39.836 35.5165 39.896 35.5485 39.976L37.6485 44.968L37.4925 45.064L39.6405 39.976C39.7045 39.816 39.8205 39.74 39.9885 39.748C40.0685 39.748 40.1445 39.776 40.2165 39.832C40.2885 39.88 40.3245 39.952 40.3245 40.048C40.3245 40.096 40.3165 40.136 40.3005 40.168C40.2925 40.192 40.2845 40.22 40.2765 40.252L37.9245 45.772C37.8605 45.916 37.7525 45.992 37.6005 46C37.5285 46.008 37.4565 45.992 37.3845 45.952C37.3205 45.904 37.2725 45.844 37.2405 45.772L34.8765 40.252C34.8685 40.236 34.8605 40.212 34.8525 40.18C34.8445 40.148 34.8405 40.116 34.8405 40.084C34.8405 39.996 34.8725 39.916 34.9365 39.844C35.0005 39.772 35.0925 39.736 35.2125 39.736ZM44.5415 46.12C43.9255 46.12 43.3815 45.988 42.9095 45.724C42.4375 45.46 42.0695 45.092 41.8055 44.62C41.5415 44.148 41.4095 43.596 41.4095 42.964C41.4095 42.284 41.5415 41.704 41.8055 41.224C42.0775 40.744 42.4255 40.376 42.8495 40.12C43.2815 39.856 43.7375 39.724 44.2175 39.724C44.5695 39.724 44.9095 39.788 45.2375 39.916C45.5735 40.036 45.8695 40.22 46.1255 40.468C46.3895 40.708 46.5975 41.004 46.7495 41.356C46.9095 41.708 46.9975 42.116 47.0135 42.58C47.0055 42.676 46.9655 42.76 46.8935 42.832C46.8215 42.896 46.7375 42.928 46.6415 42.928H41.8295L41.6855 42.28H46.4135L46.2575 42.424V42.184C46.2255 41.808 46.1055 41.488 45.8975 41.224C45.6895 40.96 45.4375 40.76 45.1415 40.624C44.8455 40.488 44.5375 40.42 44.2175 40.42C43.9775 40.42 43.7295 40.468 43.4735 40.564C43.2255 40.66 42.9975 40.812 42.7895 41.02C42.5895 41.22 42.4255 41.48 42.2975 41.8C42.1695 42.112 42.1055 42.484 42.1055 42.916C42.1055 43.388 42.2015 43.816 42.3935 44.2C42.5855 44.584 42.8615 44.888 43.2215 45.112C43.5895 45.336 44.0255 45.448 44.5295 45.448C44.8095 45.448 45.0615 45.408 45.2855 45.328C45.5095 45.248 45.7055 45.144 45.8735 45.016C46.0415 44.88 46.1815 44.74 46.2935 44.596C46.3815 44.524 46.4695 44.488 46.5575 44.488C46.6375 44.488 46.7055 44.52 46.7615 44.584C46.8255 44.648 46.8575 44.72 46.8575 44.8C46.8575 44.896 46.8175 44.98 46.7375 45.052C46.4975 45.34 46.1855 45.592 45.8015 45.808C45.4175 46.016 44.9975 46.12 44.5415 46.12ZM51.5666 39.724C52.0946 39.724 52.5146 39.832 52.8266 40.048C53.1466 40.256 53.3746 40.544 53.5106 40.912C53.6546 41.272 53.7266 41.672 53.7266 42.112V45.64C53.7266 45.736 53.6906 45.82 53.6186 45.892C53.5466 45.964 53.4626 46 53.3666 46C53.2546 46 53.1666 45.964 53.1026 45.892C53.0386 45.82 53.0066 45.736 53.0066 45.64V42.148C53.0066 41.828 52.9546 41.536 52.8506 41.272C52.7466 41.008 52.5746 40.796 52.3346 40.636C52.1026 40.476 51.7946 40.396 51.4106 40.396C51.0666 40.396 50.7386 40.476 50.4266 40.636C50.1226 40.796 49.8746 41.008 49.6826 41.272C49.4906 41.536 49.3946 41.828 49.3946 42.148V45.64C49.3946 45.736 49.3586 45.82 49.2866 45.892C49.2146 45.964 49.1306 46 49.0346 46C48.9226 46 48.8346 45.964 48.7706 45.892C48.7066 45.82 48.6746 45.736 48.6746 45.64V40.264C48.6746 40.168 48.7066 40.084 48.7706 40.012C48.8426 39.94 48.9306 39.904 49.0346 39.904C49.1386 39.904 49.2226 39.94 49.2866 40.012C49.3586 40.084 49.3946 40.168 49.3946 40.264V41.272L49.1186 41.704C49.1346 41.448 49.2146 41.204 49.3586 40.972C49.5106 40.732 49.7026 40.52 49.9346 40.336C50.1666 40.144 50.4226 39.996 50.7026 39.892C50.9906 39.78 51.2786 39.724 51.5666 39.724ZM55.3361 39.892H58.1321C58.2281 39.892 58.3081 39.928 58.3721 40C58.4361 40.064 58.4681 40.144 58.4681 40.24C58.4681 40.328 58.4361 40.404 58.3721 40.468C58.3081 40.532 58.2281 40.564 58.1321 40.564H55.3361C55.2401 40.564 55.1561 40.532 55.0841 40.468C55.0201 40.396 54.9881 40.316 54.9881 40.228C54.9881 40.132 55.0201 40.052 55.0841 39.988C55.1561 39.924 55.2401 39.892 55.3361 39.892ZM56.5721 38.2C56.6761 38.2 56.7601 38.236 56.8241 38.308C56.8961 38.38 56.9321 38.464 56.9321 38.56V44.584C56.9321 44.808 56.9601 44.976 57.0161 45.088C57.0801 45.2 57.1601 45.276 57.2561 45.316C57.3521 45.348 57.4481 45.364 57.5441 45.364C57.6081 45.364 57.6641 45.356 57.7121 45.34C57.7681 45.316 57.8281 45.304 57.8921 45.304C57.9641 45.304 58.0241 45.332 58.0721 45.388C58.1281 45.444 58.1561 45.516 58.1561 45.604C58.1561 45.716 58.0921 45.812 57.9641 45.892C57.8361 45.964 57.6841 46 57.5081 46C57.4361 46 57.3281 45.996 57.1841 45.988C57.0401 45.972 56.8921 45.928 56.7401 45.856C56.5881 45.776 56.4601 45.64 56.3561 45.448C56.2601 45.256 56.2121 44.98 56.2121 44.62V38.56C56.2121 38.464 56.2441 38.38 56.3081 38.308C56.3801 38.236 56.4681 38.2 56.5721 38.2Z" fill="white"/>
<path d="M22 28.89V27.9594C22 24.3616 24.9166 21.445 28.5144 21.445C32.1122 21.445 35.0288 24.3616 35.0288 27.9594V28.89" stroke="white" stroke-linecap="round" stroke-linejoin="round"/>
<path d="M28.5144 21.445C30.5702 21.445 32.2369 19.7783 32.2369 17.7225C32.2369 15.6666 30.5702 14 28.5144 14C26.4585 14 24.7919 15.6666 24.7919 17.7225C24.7919 19.7783 26.4585 21.445 28.5144 21.445Z" stroke="white" stroke-linecap="round" stroke-linejoin="round"/>
</g>
<defs>
<clipPath id="clip0_3_133">
<rect width="58" height="58" fill="white"/>
</clipPath>
</defs>
</svg>
