<svg width="66" height="64" viewBox="0 0 66 64" fill="none" xmlns="http://www.w3.org/2000/svg">
<g clip-path="url(#clip0_17_32)">
<path d="M8.51856 37.6C8.62256 37.6 8.70256 37.632 8.75856 37.696C8.82256 37.76 8.85456 37.84 8.85456 37.936V45.616C8.85456 45.736 8.81456 45.832 8.73456 45.904C8.66256 45.968 8.57856 46 8.48256 46C8.43456 46 8.38256 45.992 8.32656 45.976C8.27056 45.952 8.22656 45.92 8.19456 45.88L2.84256 38.668L3.04656 38.56V45.676C3.04656 45.764 3.01456 45.84 2.95056 45.904C2.88656 45.968 2.80656 46 2.71056 46C2.60656 46 2.52256 45.968 2.45856 45.904C2.40256 45.84 2.37456 45.764 2.37456 45.676V37.96C2.37456 37.84 2.41056 37.752 2.48256 37.696C2.55456 37.632 2.63456 37.6 2.72256 37.6C2.77056 37.6 2.82256 37.612 2.87856 37.636C2.93456 37.652 2.97856 37.684 3.01056 37.732L8.30256 44.86L8.18256 45.076V37.936C8.18256 37.84 8.21456 37.76 8.27856 37.696C8.35056 37.632 8.43056 37.6 8.51856 37.6ZM13.817 46.12C13.201 46.12 12.657 45.988 12.185 45.724C11.713 45.46 11.345 45.092 11.081 44.62C10.817 44.148 10.685 43.596 10.685 42.964C10.685 42.284 10.817 41.704 11.081 41.224C11.353 40.744 11.701 40.376 12.125 40.12C12.557 39.856 13.013 39.724 13.493 39.724C13.845 39.724 14.185 39.788 14.513 39.916C14.849 40.036 15.145 40.22 15.401 40.468C15.665 40.708 15.873 41.004 16.025 41.356C16.185 41.708 16.273 42.116 16.289 42.58C16.281 42.676 16.241 42.76 16.169 42.832C16.097 42.896 16.013 42.928 15.917 42.928H11.105L10.961 42.28H15.689L15.533 42.424V42.184C15.501 41.808 15.381 41.488 15.173 41.224C14.965 40.96 14.713 40.76 14.417 40.624C14.121 40.488 13.813 40.42 13.493 40.42C13.253 40.42 13.005 40.468 12.749 40.564C12.501 40.66 12.273 40.812 12.065 41.02C11.865 41.22 11.701 41.48 11.573 41.8C11.445 42.112 11.381 42.484 11.381 42.916C11.381 43.388 11.477 43.816 11.669 44.2C11.861 44.584 12.137 44.888 12.497 45.112C12.865 45.336 13.301 45.448 13.805 45.448C14.085 45.448 14.337 45.408 14.561 45.328C14.785 45.248 14.981 45.144 15.149 45.016C15.317 44.88 15.457 44.74 15.569 44.596C15.657 44.524 15.745 44.488 15.833 44.488C15.913 44.488 15.981 44.52 16.037 44.584C16.101 44.648 16.133 44.72 16.133 44.8C16.133 44.896 16.093 44.98 16.013 45.052C15.773 45.34 15.461 45.592 15.077 45.808C14.693 46.016 14.273 46.12 13.817 46.12ZM25.2342 39.736C25.3222 39.736 25.4022 39.768 25.4742 39.832C25.5542 39.896 25.5942 39.984 25.5942 40.096C25.5942 40.12 25.5902 40.148 25.5822 40.18C25.5742 40.212 25.5662 40.236 25.5582 40.252L23.7102 45.772C23.6782 45.844 23.6262 45.904 23.5542 45.952C23.4902 45.992 23.4222 46.008 23.3502 46C23.2062 45.992 23.0982 45.916 23.0262 45.772L21.3342 41.788L21.5502 41.836L20.0502 45.772C19.9862 45.916 19.8782 45.992 19.7262 46C19.6542 46.008 19.5822 45.992 19.5102 45.952C19.4382 45.904 19.3902 45.844 19.3662 45.772L17.4702 40.252C17.4462 40.196 17.4342 40.144 17.4342 40.096C17.4342 39.992 17.4662 39.908 17.5302 39.844C17.6022 39.772 17.6942 39.736 17.8062 39.736C17.8782 39.736 17.9422 39.756 17.9982 39.796C18.0622 39.836 18.1062 39.896 18.1302 39.976L19.8342 45.088L19.6062 45.076L21.1542 41.176C21.2182 41.024 21.3302 40.948 21.4902 40.948C21.5702 40.948 21.6382 40.968 21.6942 41.008C21.7502 41.048 21.7942 41.104 21.8262 41.176L23.4702 45.088L23.2062 45.1L24.8982 39.976C24.9462 39.816 25.0582 39.736 25.2342 39.736ZM31.0349 37.6H35.4389C35.5349 37.6 35.6189 37.636 35.6909 37.708C35.7629 37.772 35.7989 37.856 35.7989 37.96C35.7989 38.064 35.7629 38.148 35.6909 38.212C35.6189 38.276 35.5349 38.308 35.4389 38.308H31.3109L31.4309 38.104V41.476L31.2989 41.32H34.8989C34.9949 41.32 35.0789 41.356 35.1509 41.428C35.2229 41.5 35.2589 41.584 35.2589 41.68C35.2589 41.784 35.2229 41.868 35.1509 41.932C35.0789 41.996 34.9949 42.028 34.8989 42.028H31.3229L31.4309 41.908V45.364L31.3709 45.292H35.4389C35.5349 45.292 35.6189 45.328 35.6909 45.4C35.7629 45.472 35.7989 45.556 35.7989 45.652C35.7989 45.756 35.7629 45.84 35.6909 45.904C35.6189 45.968 35.5349 46 35.4389 46H31.0349C30.9389 46 30.8549 45.964 30.7829 45.892C30.7109 45.82 30.6749 45.736 30.6749 45.64V37.96C30.6749 37.864 30.7109 37.78 30.7829 37.708C30.8549 37.636 30.9389 37.6 31.0349 37.6ZM37.1154 39.736C37.1794 39.736 37.2434 39.756 37.3074 39.796C37.3714 39.836 37.4194 39.896 37.4514 39.976L39.5514 44.968L39.3954 45.064L41.5434 39.976C41.6074 39.816 41.7234 39.74 41.8914 39.748C41.9714 39.748 42.0474 39.776 42.1194 39.832C42.1914 39.88 42.2274 39.952 42.2274 40.048C42.2274 40.096 42.2194 40.136 42.2034 40.168C42.1954 40.192 42.1874 40.22 42.1794 40.252L39.8274 45.772C39.7634 45.916 39.6554 45.992 39.5034 46C39.4314 46.008 39.3594 45.992 39.2874 45.952C39.2234 45.904 39.1754 45.844 39.1434 45.772L36.7794 40.252C36.7714 40.236 36.7634 40.212 36.7554 40.18C36.7474 40.148 36.7434 40.116 36.7434 40.084C36.7434 39.996 36.7754 39.916 36.8394 39.844C36.9034 39.772 36.9954 39.736 37.1154 39.736ZM46.4444 46.12C45.8284 46.12 45.2844 45.988 44.8124 45.724C44.3404 45.46 43.9724 45.092 43.7084 44.62C43.4444 44.148 43.3124 43.596 43.3124 42.964C43.3124 42.284 43.4444 41.704 43.7084 41.224C43.9804 40.744 44.3284 40.376 44.7524 40.12C45.1844 39.856 45.6404 39.724 46.1204 39.724C46.4724 39.724 46.8124 39.788 47.1404 39.916C47.4764 40.036 47.7724 40.22 48.0284 40.468C48.2924 40.708 48.5004 41.004 48.6524 41.356C48.8124 41.708 48.9004 42.116 48.9164 42.58C48.9084 42.676 48.8684 42.76 48.7964 42.832C48.7244 42.896 48.6404 42.928 48.5444 42.928H43.7324L43.5884 42.28H48.3164L48.1604 42.424V42.184C48.1284 41.808 48.0084 41.488 47.8004 41.224C47.5924 40.96 47.3404 40.76 47.0444 40.624C46.7484 40.488 46.4404 40.42 46.1204 40.42C45.8804 40.42 45.6324 40.468 45.3764 40.564C45.1284 40.66 44.9004 40.812 44.6924 41.02C44.4924 41.22 44.3284 41.48 44.2004 41.8C44.0724 42.112 44.0084 42.484 44.0084 42.916C44.0084 43.388 44.1044 43.816 44.2964 44.2C44.4884 44.584 44.7644 44.888 45.1244 45.112C45.4924 45.336 45.9284 45.448 46.4324 45.448C46.7124 45.448 46.9644 45.408 47.1884 45.328C47.4124 45.248 47.6084 45.144 47.7764 45.016C47.9444 44.88 48.0844 44.74 48.1964 44.596C48.2844 44.524 48.3724 44.488 48.4604 44.488C48.5404 44.488 48.6084 44.52 48.6644 44.584C48.7284 44.648 48.7604 44.72 48.7604 44.8C48.7604 44.896 48.7204 44.98 48.6404 45.052C48.4004 45.34 48.0884 45.592 47.7044 45.808C47.3204 46.016 46.9004 46.12 46.4444 46.12ZM53.4695 39.724C53.9975 39.724 54.4175 39.832 54.7295 40.048C55.0495 40.256 55.2775 40.544 55.4135 40.912C55.5575 41.272 55.6295 41.672 55.6295 42.112V45.64C55.6295 45.736 55.5935 45.82 55.5215 45.892C55.4495 45.964 55.3655 46 55.2695 46C55.1575 46 55.0695 45.964 55.0055 45.892C54.9415 45.82 54.9095 45.736 54.9095 45.64V42.148C54.9095 41.828 54.8575 41.536 54.7535 41.272C54.6495 41.008 54.4775 40.796 54.2375 40.636C54.0055 40.476 53.6975 40.396 53.3135 40.396C52.9695 40.396 52.6415 40.476 52.3295 40.636C52.0255 40.796 51.7775 41.008 51.5855 41.272C51.3935 41.536 51.2975 41.828 51.2975 42.148V45.64C51.2975 45.736 51.2615 45.82 51.1895 45.892C51.1175 45.964 51.0335 46 50.9375 46C50.8255 46 50.7375 45.964 50.6735 45.892C50.6095 45.82 50.5775 45.736 50.5775 45.64V40.264C50.5775 40.168 50.6095 40.084 50.6735 40.012C50.7455 39.94 50.8335 39.904 50.9375 39.904C51.0415 39.904 51.1255 39.94 51.1895 40.012C51.2615 40.084 51.2975 40.168 51.2975 40.264V41.272L51.0215 41.704C51.0375 41.448 51.1175 41.204 51.2615 40.972C51.4135 40.732 51.6055 40.52 51.8375 40.336C52.0695 40.144 52.3255 39.996 52.6055 39.892C52.8935 39.78 53.1815 39.724 53.4695 39.724ZM57.239 39.892H60.035C60.131 39.892 60.211 39.928 60.275 40C60.339 40.064 60.371 40.144 60.371 40.24C60.371 40.328 60.339 40.404 60.275 40.468C60.211 40.532 60.131 40.564 60.035 40.564H57.239C57.143 40.564 57.059 40.532 56.987 40.468C56.923 40.396 56.891 40.316 56.891 40.228C56.891 40.132 56.923 40.052 56.987 39.988C57.059 39.924 57.143 39.892 57.239 39.892ZM58.475 38.2C58.579 38.2 58.663 38.236 58.727 38.308C58.799 38.38 58.835 38.464 58.835 38.56V44.584C58.835 44.808 58.863 44.976 58.919 45.088C58.983 45.2 59.063 45.276 59.159 45.316C59.255 45.348 59.351 45.364 59.447 45.364C59.511 45.364 59.567 45.356 59.615 45.34C59.671 45.316 59.731 45.304 59.795 45.304C59.867 45.304 59.927 45.332 59.975 45.388C60.031 45.444 60.059 45.516 60.059 45.604C60.059 45.716 59.995 45.812 59.867 45.892C59.739 45.964 59.587 46 59.411 46C59.339 46 59.231 45.996 59.087 45.988C58.943 45.972 58.795 45.928 58.643 45.856C58.491 45.776 58.363 45.64 58.259 45.448C58.163 45.256 58.115 44.98 58.115 44.62V38.56C58.115 38.464 58.147 38.38 58.211 38.308C58.283 38.236 58.371 38.2 58.475 38.2Z" fill="white"/>
<path d="M25 17.445H33.0964M33.0964 17.445H41.1929M33.0964 17.445V10M33.0964 17.445V24.89" stroke="white" stroke-linecap="round" stroke-linejoin="round"/>
</g>
<defs>
<clipPath id="clip0_17_32">
<rect width="66" height="64" fill="white"/>
</clipPath>
</defs>
</svg>
