<svg width="58" height="58" viewBox="0 0 58 58" fill="none" xmlns="http://www.w3.org/2000/svg">
<path d="M11.0925 41.8C11.0925 42.432 10.9925 43.012 10.7925 43.54C10.6005 44.06 10.3245 44.516 9.96448 44.908C9.60448 45.292 9.17648 45.592 8.68048 45.808C8.19248 46.016 7.65648 46.12 7.07248 46.12C6.48848 46.12 5.94848 46.016 5.45248 45.808C4.96448 45.592 4.54048 45.292 4.18048 44.908C3.82048 44.516 3.54048 44.06 3.34048 43.54C3.14848 43.012 3.05248 42.432 3.05248 41.8C3.05248 41.168 3.14848 40.592 3.34048 40.072C3.54048 39.544 3.82048 39.088 4.18048 38.704C4.54048 38.312 4.96448 38.012 5.45248 37.804C5.94848 37.588 6.48848 37.48 7.07248 37.48C7.65648 37.48 8.19248 37.588 8.68048 37.804C9.17648 38.012 9.60448 38.312 9.96448 38.704C10.3245 39.088 10.6005 39.544 10.7925 40.072C10.9925 40.592 11.0925 41.168 11.0925 41.8ZM10.3245 41.8C10.3245 41.088 10.1845 40.464 9.90448 39.928C9.63248 39.384 9.25248 38.96 8.76448 38.656C8.27648 38.352 7.71248 38.2 7.07248 38.2C6.44048 38.2 5.87648 38.352 5.38048 38.656C4.89248 38.96 4.50848 39.384 4.22848 39.928C3.95648 40.464 3.82048 41.088 3.82048 41.8C3.82048 42.512 3.95648 43.14 4.22848 43.684C4.50848 44.22 4.89248 44.64 5.38048 44.944C5.87648 45.248 6.44048 45.4 7.07248 45.4C7.71248 45.4 8.27648 45.248 8.76448 44.944C9.25248 44.64 9.63248 44.22 9.90448 43.684C10.1845 43.14 10.3245 42.512 10.3245 41.8ZM12.588 39.736C12.652 39.736 12.716 39.756 12.78 39.796C12.844 39.836 12.892 39.896 12.924 39.976L15.024 44.968L14.868 45.064L17.016 39.976C17.08 39.816 17.196 39.74 17.364 39.748C17.444 39.748 17.52 39.776 17.592 39.832C17.664 39.88 17.7 39.952 17.7 40.048C17.7 40.096 17.692 40.136 17.676 40.168C17.668 40.192 17.66 40.22 17.652 40.252L15.3 45.772C15.236 45.916 15.128 45.992 14.976 46C14.904 46.008 14.832 45.992 14.76 45.952C14.696 45.904 14.648 45.844 14.616 45.772L12.252 40.252C12.244 40.236 12.236 40.212 12.228 40.18C12.22 40.148 12.216 40.116 12.216 40.084C12.216 39.996 12.248 39.916 12.312 39.844C12.376 39.772 12.468 39.736 12.588 39.736ZM21.917 46.12C21.301 46.12 20.757 45.988 20.285 45.724C19.813 45.46 19.445 45.092 19.181 44.62C18.917 44.148 18.785 43.596 18.785 42.964C18.785 42.284 18.917 41.704 19.181 41.224C19.453 40.744 19.801 40.376 20.225 40.12C20.657 39.856 21.113 39.724 21.593 39.724C21.945 39.724 22.285 39.788 22.613 39.916C22.949 40.036 23.245 40.22 23.501 40.468C23.765 40.708 23.973 41.004 24.125 41.356C24.285 41.708 24.373 42.116 24.389 42.58C24.381 42.676 24.341 42.76 24.269 42.832C24.197 42.896 24.113 42.928 24.017 42.928H19.205L19.061 42.28H23.789L23.633 42.424V42.184C23.601 41.808 23.481 41.488 23.273 41.224C23.065 40.96 22.813 40.76 22.517 40.624C22.221 40.488 21.913 40.42 21.593 40.42C21.353 40.42 21.105 40.468 20.849 40.564C20.601 40.66 20.373 40.812 20.165 41.02C19.965 41.22 19.801 41.48 19.673 41.8C19.545 42.112 19.481 42.484 19.481 42.916C19.481 43.388 19.577 43.816 19.769 44.2C19.961 44.584 20.237 44.888 20.597 45.112C20.965 45.336 21.401 45.448 21.905 45.448C22.185 45.448 22.437 45.408 22.661 45.328C22.885 45.248 23.081 45.144 23.249 45.016C23.417 44.88 23.557 44.74 23.669 44.596C23.757 44.524 23.845 44.488 23.933 44.488C24.013 44.488 24.081 44.52 24.137 44.584C24.201 44.648 24.233 44.72 24.233 44.8C24.233 44.896 24.193 44.98 24.113 45.052C23.873 45.34 23.561 45.592 23.177 45.808C22.793 46.016 22.373 46.12 21.917 46.12ZM26.4101 46C26.2981 46 26.2101 45.964 26.1461 45.892C26.0821 45.82 26.0501 45.736 26.0501 45.64V40.264C26.0501 40.168 26.0821 40.084 26.1461 40.012C26.2181 39.94 26.3061 39.904 26.4101 39.904C26.5141 39.904 26.5981 39.94 26.6621 40.012C26.7341 40.084 26.7701 40.168 26.7701 40.264V42.064L26.5901 42.1C26.6141 41.82 26.6821 41.544 26.7941 41.272C26.9141 40.992 27.0741 40.736 27.2741 40.504C27.4741 40.272 27.7101 40.084 27.9821 39.94C28.2621 39.796 28.5741 39.724 28.9181 39.724C29.0621 39.724 29.2021 39.756 29.3381 39.82C29.4741 39.876 29.5421 39.972 29.5421 40.108C29.5421 40.228 29.5101 40.32 29.4461 40.384C29.3821 40.448 29.3061 40.48 29.2181 40.48C29.1461 40.48 29.0661 40.46 28.9781 40.42C28.8981 40.38 28.7901 40.36 28.6541 40.36C28.4301 40.36 28.2061 40.428 27.9821 40.564C27.7581 40.692 27.5541 40.868 27.3701 41.092C27.1861 41.316 27.0381 41.568 26.9261 41.848C26.8221 42.12 26.7701 42.396 26.7701 42.676V45.64C26.7701 45.736 26.7341 45.82 26.6621 45.892C26.5901 45.964 26.5061 46 26.4101 46ZM31.241 39.736C31.305 39.736 31.369 39.756 31.433 39.796C31.497 39.836 31.545 39.896 31.577 39.976L33.677 44.968L33.521 45.064L35.669 39.976C35.733 39.816 35.849 39.74 36.017 39.748C36.097 39.748 36.173 39.776 36.245 39.832C36.317 39.88 36.353 39.952 36.353 40.048C36.353 40.096 36.345 40.136 36.329 40.168C36.321 40.192 36.313 40.22 36.305 40.252L33.953 45.772C33.889 45.916 33.781 45.992 33.629 46C33.557 46.008 33.485 45.992 33.413 45.952C33.349 45.904 33.301 45.844 33.269 45.772L30.905 40.252C30.897 40.236 30.889 40.212 30.881 40.18C30.873 40.148 30.869 40.116 30.869 40.084C30.869 39.996 30.901 39.916 30.965 39.844C31.029 39.772 31.121 39.736 31.241 39.736ZM38.5525 45.64C38.5525 45.736 38.5165 45.82 38.4445 45.892C38.3725 45.964 38.2885 46 38.1925 46C38.0885 46 38.0005 45.964 37.9285 45.892C37.8645 45.82 37.8325 45.736 37.8325 45.64V40.12C37.8325 40.024 37.8645 39.94 37.9285 39.868C38.0005 39.796 38.0885 39.76 38.1925 39.76C38.2965 39.76 38.3805 39.796 38.4445 39.868C38.5165 39.94 38.5525 40.024 38.5525 40.12V45.64ZM38.1925 38.956C38.0245 38.956 37.8965 38.92 37.8085 38.848C37.7285 38.768 37.6885 38.656 37.6885 38.512V38.392C37.6885 38.248 37.7325 38.14 37.8205 38.068C37.9165 37.988 38.0445 37.948 38.2045 37.948C38.3565 37.948 38.4725 37.988 38.5525 38.068C38.6405 38.14 38.6845 38.248 38.6845 38.392V38.512C38.6845 38.656 38.6405 38.768 38.5525 38.848C38.4725 38.92 38.3525 38.956 38.1925 38.956ZM43.3149 46.12C42.6989 46.12 42.1549 45.988 41.6829 45.724C41.2109 45.46 40.8429 45.092 40.5789 44.62C40.3149 44.148 40.1829 43.596 40.1829 42.964C40.1829 42.284 40.3149 41.704 40.5789 41.224C40.8509 40.744 41.1989 40.376 41.6229 40.12C42.0549 39.856 42.5109 39.724 42.9909 39.724C43.3429 39.724 43.6829 39.788 44.0109 39.916C44.3469 40.036 44.6429 40.22 44.8989 40.468C45.1629 40.708 45.3709 41.004 45.5229 41.356C45.6829 41.708 45.7709 42.116 45.7869 42.58C45.7789 42.676 45.7389 42.76 45.6669 42.832C45.5949 42.896 45.5109 42.928 45.4149 42.928H40.6029L40.4589 42.28H45.1869L45.0309 42.424V42.184C44.9989 41.808 44.8789 41.488 44.6709 41.224C44.4629 40.96 44.2109 40.76 43.9149 40.624C43.6189 40.488 43.3109 40.42 42.9909 40.42C42.7509 40.42 42.5029 40.468 42.2469 40.564C41.9989 40.66 41.7709 40.812 41.5629 41.02C41.3629 41.22 41.1989 41.48 41.0709 41.8C40.9429 42.112 40.8789 42.484 40.8789 42.916C40.8789 43.388 40.9749 43.816 41.1669 44.2C41.3589 44.584 41.6349 44.888 41.9949 45.112C42.3629 45.336 42.7989 45.448 43.3029 45.448C43.5829 45.448 43.8349 45.408 44.0589 45.328C44.2829 45.248 44.4789 45.144 44.6469 45.016C44.8149 44.88 44.9549 44.74 45.0669 44.596C45.1549 44.524 45.2429 44.488 45.3309 44.488C45.4109 44.488 45.4789 44.52 45.5349 44.584C45.5989 44.648 45.6309 44.72 45.6309 44.8C45.6309 44.896 45.5909 44.98 45.5109 45.052C45.2709 45.34 44.9589 45.592 44.5749 45.808C44.1909 46.016 43.7709 46.12 43.3149 46.12ZM54.7321 39.736C54.8201 39.736 54.9001 39.768 54.9721 39.832C55.0521 39.896 55.0921 39.984 55.0921 40.096C55.0921 40.12 55.0881 40.148 55.0801 40.18C55.0721 40.212 55.0641 40.236 55.0561 40.252L53.2081 45.772C53.1761 45.844 53.1241 45.904 53.0521 45.952C52.9881 45.992 52.9201 46.008 52.8481 46C52.7041 45.992 52.5961 45.916 52.5241 45.772L50.8321 41.788L51.0481 41.836L49.5481 45.772C49.4841 45.916 49.3761 45.992 49.2241 46C49.1521 46.008 49.0801 45.992 49.0081 45.952C48.9361 45.904 48.8881 45.844 48.8641 45.772L46.9681 40.252C46.9441 40.196 46.9321 40.144 46.9321 40.096C46.9321 39.992 46.9641 39.908 47.0281 39.844C47.1001 39.772 47.1921 39.736 47.3041 39.736C47.3761 39.736 47.4401 39.756 47.4961 39.796C47.5601 39.836 47.6041 39.896 47.6281 39.976L49.3321 45.088L49.1041 45.076L50.6521 41.176C50.7161 41.024 50.8281 40.948 50.9881 40.948C51.0681 40.948 51.1361 40.968 51.1921 41.008C51.2481 41.048 51.2921 41.104 51.3241 41.176L52.9681 45.088L52.7041 45.1L54.3961 39.976C54.4441 39.816 54.5561 39.736 54.7321 39.736Z" fill="white"/>
<g filter="url(#filter0_d_17_22)">
<path d="M21 19.117L29.3733 14L37.7467 19.117" stroke="white" stroke-linecap="round" stroke-linejoin="round"/>
<path d="M35.8859 22.3733V28.3277C35.8859 28.636 35.636 28.8859 35.3277 28.8859H23.4189C23.1106 28.8859 22.8607 28.636 22.8607 28.3277V22.3733" stroke="white" stroke-linecap="round" stroke-linejoin="round"/>
</g>
<defs>
<filter id="filter0_d_17_22" x="16.4999" y="13.5" width="25.7468" height="23.8859" filterUnits="userSpaceOnUse" color-interpolation-filters="sRGB">
<feFlood flood-opacity="0" result="BackgroundImageFix"/>
<feColorMatrix in="SourceAlpha" type="matrix" values="0 0 0 0 0 0 0 0 0 0 0 0 0 0 0 0 0 0 127 0" result="hardAlpha"/>
<feOffset dy="4"/>
<feGaussianBlur stdDeviation="2"/>
<feComposite in2="hardAlpha" operator="out"/>
<feColorMatrix type="matrix" values="0 0 0 0 0 0 0 0 0 0 0 0 0 0 0 0 0 0 0.25 0"/>
<feBlend mode="normal" in2="BackgroundImageFix" result="effect1_dropShadow_17_22"/>
<feBlend mode="normal" in="SourceGraphic" in2="effect1_dropShadow_17_22" result="shape"/>
</filter>
</defs>
</svg>
