<svg width="58" height="58" viewBox="0 0 58 58" fill="none" xmlns="http://www.w3.org/2000/svg">
<path d="M10.4459 46.12C9.83788 46.128 9.30988 46.032 8.86187 45.832C8.41387 45.632 7.98587 45.332 7.57787 44.932C7.53787 44.9 7.50187 44.86 7.46987 44.812C7.44587 44.764 7.43387 44.708 7.43387 44.644C7.43387 44.548 7.46987 44.46 7.54187 44.38C7.62187 44.3 7.70987 44.26 7.80587 44.26C7.90187 44.26 7.98987 44.3 8.06987 44.38C8.38187 44.716 8.73387 44.972 9.12587 45.148C9.52588 45.324 9.95388 45.412 10.4099 45.412C10.7939 45.412 11.1339 45.352 11.4299 45.232C11.7339 45.112 11.9739 44.94 12.1499 44.716C12.3259 44.492 12.4139 44.232 12.4139 43.936C12.4139 43.568 12.3139 43.272 12.1139 43.048C11.9139 42.816 11.6499 42.628 11.3219 42.484C10.9939 42.332 10.6299 42.196 10.2299 42.076C9.90188 41.98 9.58988 41.872 9.29388 41.752C8.99788 41.624 8.73388 41.472 8.50187 41.296C8.26987 41.112 8.08987 40.888 7.96187 40.624C7.83387 40.36 7.76987 40.04 7.76987 39.664C7.76987 39.24 7.88187 38.864 8.10588 38.536C8.32987 38.208 8.64587 37.952 9.05387 37.768C9.46987 37.576 9.94987 37.48 10.4939 37.48C10.9659 37.48 11.4179 37.56 11.8499 37.72C12.2899 37.88 12.6379 38.116 12.8939 38.428C13.0139 38.556 13.0739 38.672 13.0739 38.776C13.0739 38.856 13.0339 38.936 12.9539 39.016C12.8739 39.096 12.7859 39.136 12.6899 39.136C12.6099 39.136 12.5419 39.108 12.4859 39.052C12.3499 38.884 12.1779 38.736 11.9699 38.608C11.7619 38.472 11.5299 38.368 11.2739 38.296C11.0259 38.224 10.7659 38.188 10.4939 38.188C10.1179 38.188 9.77788 38.248 9.47388 38.368C9.17788 38.48 8.94188 38.644 8.76587 38.86C8.59787 39.076 8.51387 39.336 8.51387 39.64C8.51387 39.976 8.60987 40.252 8.80187 40.468C8.99388 40.684 9.24588 40.864 9.55788 41.008C9.86988 41.144 10.2019 41.272 10.5539 41.392C10.8979 41.488 11.2259 41.6 11.5379 41.728C11.8579 41.848 12.1379 42 12.3779 42.184C12.6259 42.368 12.8179 42.6 12.9539 42.88C13.0979 43.16 13.1699 43.512 13.1699 43.936C13.1699 44.344 13.0539 44.712 12.8219 45.04C12.5899 45.368 12.2699 45.628 11.8619 45.82C11.4619 46.012 10.9899 46.112 10.4459 46.12ZM17.5802 46.12C16.9642 46.12 16.4202 45.988 15.9482 45.724C15.4762 45.46 15.1082 45.092 14.8442 44.62C14.5802 44.148 14.4482 43.596 14.4482 42.964C14.4482 42.284 14.5802 41.704 14.8442 41.224C15.1162 40.744 15.4642 40.376 15.8882 40.12C16.3202 39.856 16.7762 39.724 17.2562 39.724C17.6082 39.724 17.9482 39.788 18.2762 39.916C18.6122 40.036 18.9082 40.22 19.1642 40.468C19.4282 40.708 19.6362 41.004 19.7882 41.356C19.9482 41.708 20.0362 42.116 20.0522 42.58C20.0442 42.676 20.0042 42.76 19.9322 42.832C19.8602 42.896 19.7762 42.928 19.6802 42.928H14.8682L14.7242 42.28H19.4522L19.2962 42.424V42.184C19.2642 41.808 19.1442 41.488 18.9362 41.224C18.7282 40.96 18.4762 40.76 18.1802 40.624C17.8842 40.488 17.5762 40.42 17.2562 40.42C17.0162 40.42 16.7682 40.468 16.5122 40.564C16.2642 40.66 16.0362 40.812 15.8282 41.02C15.6282 41.22 15.4642 41.48 15.3362 41.8C15.2082 42.112 15.1442 42.484 15.1442 42.916C15.1442 43.388 15.2402 43.816 15.4322 44.2C15.6242 44.584 15.9002 44.888 16.2602 45.112C16.6282 45.336 17.0642 45.448 17.5682 45.448C17.8482 45.448 18.1002 45.408 18.3242 45.328C18.5482 45.248 18.7442 45.144 18.9122 45.016C19.0802 44.88 19.2202 44.74 19.3322 44.596C19.4202 44.524 19.5082 44.488 19.5962 44.488C19.6762 44.488 19.7442 44.52 19.8002 44.584C19.8642 44.648 19.8962 44.72 19.8962 44.8C19.8962 44.896 19.8562 44.98 19.7762 45.052C19.5362 45.34 19.2242 45.592 18.8402 45.808C18.4562 46.016 18.0362 46.12 17.5802 46.12ZM21.3173 39.892H24.1133C24.2093 39.892 24.2893 39.928 24.3533 40C24.4173 40.064 24.4493 40.144 24.4493 40.24C24.4493 40.328 24.4173 40.404 24.3533 40.468C24.2893 40.532 24.2093 40.564 24.1133 40.564H21.3173C21.2213 40.564 21.1373 40.532 21.0653 40.468C21.0013 40.396 20.9693 40.316 20.9693 40.228C20.9693 40.132 21.0013 40.052 21.0653 39.988C21.1373 39.924 21.2213 39.892 21.3173 39.892ZM22.5533 38.2C22.6573 38.2 22.7413 38.236 22.8053 38.308C22.8773 38.38 22.9133 38.464 22.9133 38.56V44.584C22.9133 44.808 22.9413 44.976 22.9973 45.088C23.0613 45.2 23.1413 45.276 23.2373 45.316C23.3333 45.348 23.4293 45.364 23.5253 45.364C23.5893 45.364 23.6453 45.356 23.6933 45.34C23.7493 45.316 23.8093 45.304 23.8733 45.304C23.9453 45.304 24.0053 45.332 24.0533 45.388C24.1093 45.444 24.1373 45.516 24.1373 45.604C24.1373 45.716 24.0733 45.812 23.9453 45.892C23.8173 45.964 23.6653 46 23.4893 46C23.4173 46 23.3093 45.996 23.1653 45.988C23.0213 45.972 22.8733 45.928 22.7213 45.856C22.5693 45.776 22.4413 45.64 22.3373 45.448C22.2413 45.256 22.1933 44.98 22.1933 44.62V38.56C22.1933 38.464 22.2253 38.38 22.2893 38.308C22.3613 38.236 22.4493 38.2 22.5533 38.2ZM25.5037 39.892H28.2997C28.3957 39.892 28.4757 39.928 28.5397 40C28.6037 40.064 28.6357 40.144 28.6357 40.24C28.6357 40.328 28.6037 40.404 28.5397 40.468C28.4757 40.532 28.3957 40.564 28.2997 40.564H25.5037C25.4077 40.564 25.3237 40.532 25.2517 40.468C25.1877 40.396 25.1557 40.316 25.1557 40.228C25.1557 40.132 25.1877 40.052 25.2517 39.988C25.3237 39.924 25.4077 39.892 25.5037 39.892ZM26.7397 38.2C26.8437 38.2 26.9277 38.236 26.9917 38.308C27.0637 38.38 27.0997 38.464 27.0997 38.56V44.584C27.0997 44.808 27.1277 44.976 27.1837 45.088C27.2477 45.2 27.3277 45.276 27.4237 45.316C27.5197 45.348 27.6157 45.364 27.7117 45.364C27.7757 45.364 27.8317 45.356 27.8797 45.34C27.9357 45.316 27.9957 45.304 28.0597 45.304C28.1317 45.304 28.1917 45.332 28.2397 45.388C28.2957 45.444 28.3237 45.516 28.3237 45.604C28.3237 45.716 28.2597 45.812 28.1317 45.892C28.0037 45.964 27.8517 46 27.6757 46C27.6037 46 27.4957 45.996 27.3517 45.988C27.2077 45.972 27.0597 45.928 26.9077 45.856C26.7557 45.776 26.6277 45.64 26.5237 45.448C26.4277 45.256 26.3797 44.98 26.3797 44.62V38.56C26.3797 38.464 26.4117 38.38 26.4757 38.308C26.5477 38.236 26.6357 38.2 26.7397 38.2ZM30.7821 45.64C30.7821 45.736 30.7461 45.82 30.6741 45.892C30.6021 45.964 30.5181 46 30.4221 46C30.3181 46 30.2301 45.964 30.1581 45.892C30.0941 45.82 30.0621 45.736 30.0621 45.64V40.12C30.0621 40.024 30.0941 39.94 30.1581 39.868C30.2301 39.796 30.3181 39.76 30.4221 39.76C30.5261 39.76 30.6101 39.796 30.6741 39.868C30.7461 39.94 30.7821 40.024 30.7821 40.12V45.64ZM30.4221 38.956C30.2541 38.956 30.1261 38.92 30.0381 38.848C29.9581 38.768 29.9181 38.656 29.9181 38.512V38.392C29.9181 38.248 29.9621 38.14 30.0501 38.068C30.1461 37.988 30.2741 37.948 30.4341 37.948C30.5861 37.948 30.7021 37.988 30.7821 38.068C30.8701 38.14 30.9141 38.248 30.9141 38.392V38.512C30.9141 38.656 30.8701 38.768 30.7821 38.848C30.7021 38.92 30.5821 38.956 30.4221 38.956ZM35.6645 39.724C36.1925 39.724 36.6125 39.832 36.9245 40.048C37.2445 40.256 37.4725 40.544 37.6085 40.912C37.7525 41.272 37.8245 41.672 37.8245 42.112V45.64C37.8245 45.736 37.7885 45.82 37.7165 45.892C37.6445 45.964 37.5605 46 37.4645 46C37.3525 46 37.2645 45.964 37.2005 45.892C37.1365 45.82 37.1045 45.736 37.1045 45.64V42.148C37.1045 41.828 37.0525 41.536 36.9485 41.272C36.8445 41.008 36.6725 40.796 36.4325 40.636C36.2005 40.476 35.8925 40.396 35.5085 40.396C35.1645 40.396 34.8365 40.476 34.5245 40.636C34.2205 40.796 33.9725 41.008 33.7805 41.272C33.5885 41.536 33.4925 41.828 33.4925 42.148V45.64C33.4925 45.736 33.4565 45.82 33.3845 45.892C33.3125 45.964 33.2285 46 33.1325 46C33.0205 46 32.9325 45.964 32.8685 45.892C32.8045 45.82 32.7725 45.736 32.7725 45.64V40.264C32.7725 40.168 32.8045 40.084 32.8685 40.012C32.9405 39.94 33.0285 39.904 33.1325 39.904C33.2365 39.904 33.3205 39.94 33.3845 40.012C33.4565 40.084 33.4925 40.168 33.4925 40.264V41.272L33.2165 41.704C33.2325 41.448 33.3125 41.204 33.4565 40.972C33.6085 40.732 33.8005 40.52 34.0325 40.336C34.2645 40.144 34.5205 39.996 34.8005 39.892C35.0885 39.78 35.3765 39.724 35.6645 39.724ZM42.386 39.724C42.746 39.724 43.078 39.788 43.382 39.916C43.686 40.036 43.95 40.196 44.174 40.396C44.406 40.588 44.586 40.796 44.714 41.02C44.842 41.236 44.906 41.444 44.906 41.644L44.702 41.356V40.24C44.702 40.136 44.734 40.048 44.798 39.976C44.87 39.904 44.958 39.868 45.062 39.868C45.174 39.868 45.262 39.904 45.326 39.976C45.39 40.048 45.422 40.136 45.422 40.24V45.436C45.422 46.076 45.29 46.616 45.026 47.056C44.762 47.496 44.402 47.828 43.946 48.052C43.498 48.284 42.986 48.4 42.41 48.4C42.13 48.4 41.834 48.364 41.522 48.292C41.218 48.22 40.954 48.128 40.73 48.016C40.514 47.904 40.394 47.788 40.37 47.668C40.306 47.596 40.274 47.524 40.274 47.452C40.282 47.388 40.318 47.332 40.382 47.284C40.462 47.228 40.546 47.22 40.634 47.26C40.722 47.308 40.854 47.368 41.03 47.44C41.11 47.464 41.218 47.5 41.354 47.548C41.49 47.596 41.65 47.636 41.834 47.668C42.026 47.708 42.226 47.728 42.434 47.728C43.154 47.728 43.71 47.52 44.102 47.104C44.502 46.696 44.702 46.156 44.702 45.484V44.332L44.834 44.368C44.762 44.656 44.642 44.908 44.474 45.124C44.314 45.34 44.122 45.524 43.898 45.676C43.674 45.82 43.43 45.928 43.166 46C42.91 46.08 42.654 46.12 42.398 46.12C41.846 46.12 41.35 45.98 40.91 45.7C40.47 45.42 40.118 45.04 39.854 44.56C39.598 44.08 39.47 43.532 39.47 42.916C39.47 42.308 39.598 41.764 39.854 41.284C40.118 40.796 40.466 40.416 40.898 40.144C41.338 39.864 41.834 39.724 42.386 39.724ZM42.47 40.396C42.03 40.396 41.634 40.508 41.282 40.732C40.938 40.948 40.666 41.248 40.466 41.632C40.274 42.008 40.178 42.436 40.178 42.916C40.178 43.396 40.274 43.828 40.466 44.212C40.666 44.596 40.938 44.9 41.282 45.124C41.634 45.34 42.03 45.448 42.47 45.448C42.91 45.448 43.302 45.34 43.646 45.124C43.99 44.908 44.262 44.612 44.462 44.236C44.662 43.852 44.762 43.412 44.762 42.916C44.762 42.42 44.662 41.984 44.462 41.608C44.262 41.224 43.99 40.928 43.646 40.72C43.302 40.504 42.91 40.396 42.47 40.396ZM46.9731 45.028C46.9091 44.932 46.8771 44.84 46.8771 44.752C46.8851 44.656 46.9371 44.58 47.0331 44.524C47.0971 44.468 47.1691 44.444 47.2491 44.452C47.3371 44.46 47.4171 44.5 47.4891 44.572C47.7051 44.852 47.9651 45.08 48.2691 45.256C48.5811 45.424 48.9491 45.508 49.3731 45.508C49.5971 45.508 49.8171 45.472 50.0331 45.4C50.2571 45.32 50.4411 45.204 50.5851 45.052C50.7291 44.892 50.8011 44.692 50.8011 44.452C50.8011 44.204 50.7291 44.004 50.5851 43.852C50.4411 43.7 50.2531 43.58 50.0211 43.492C49.7971 43.404 49.5571 43.328 49.3011 43.264C49.0291 43.192 48.7651 43.112 48.5091 43.024C48.2531 42.928 48.0251 42.812 47.8251 42.676C47.6331 42.532 47.4771 42.36 47.3571 42.16C47.2371 41.96 47.1771 41.716 47.1771 41.428C47.1771 41.092 47.2691 40.796 47.4531 40.54C47.6371 40.284 47.8851 40.084 48.1971 39.94C48.5171 39.796 48.8771 39.724 49.2771 39.724C49.4771 39.724 49.6931 39.752 49.9251 39.808C50.1571 39.856 50.3851 39.94 50.6091 40.06C50.8331 40.18 51.0331 40.344 51.2091 40.552C51.2811 40.624 51.3171 40.708 51.3171 40.804C51.3171 40.892 51.2771 40.972 51.1971 41.044C51.1331 41.092 51.0571 41.116 50.9691 41.116C50.8891 41.116 50.8211 41.084 50.7651 41.02C50.5731 40.804 50.3451 40.64 50.0811 40.528C49.8171 40.416 49.5331 40.36 49.2291 40.36C48.9971 40.36 48.7771 40.4 48.5691 40.48C48.3691 40.552 48.2011 40.664 48.0651 40.816C47.9291 40.968 47.8611 41.168 47.8611 41.416C47.8771 41.648 47.9571 41.836 48.1011 41.98C48.2531 42.124 48.4491 42.244 48.6891 42.34C48.9371 42.436 49.2131 42.524 49.5171 42.604C49.7731 42.668 50.0171 42.744 50.2491 42.832C50.4891 42.92 50.6971 43.032 50.8731 43.168C51.0571 43.296 51.2011 43.46 51.3051 43.66C51.4171 43.86 51.4731 44.112 51.4731 44.416C51.4731 44.768 51.3731 45.072 51.1731 45.328C50.9811 45.584 50.7211 45.78 50.3931 45.916C50.0651 46.052 49.7011 46.12 49.3011 46.12C48.8691 46.12 48.4491 46.036 48.0411 45.868C47.6411 45.7 47.2851 45.42 46.9731 45.028Z" fill="white"/>
<path d="M29.445 23.6785C30.6785 23.6785 31.6785 22.6786 31.6785 21.445C31.6785 20.2114 30.6785 19.2115 29.445 19.2115C28.2114 19.2115 27.2115 20.2114 27.2115 21.445C27.2115 22.6786 28.2114 23.6785 29.445 23.6785Z" stroke="white" stroke-linecap="round" stroke-linejoin="round"/>
<path d="M35.1199 20.2504L34.3026 18.277L35.401 16.978L33.912 15.489L32.6201 16.5931L30.6048 15.7643L30.1413 14H28.6864L28.2159 15.7876L26.2469 16.6176L24.978 15.489L23.489 16.978L24.571 18.3098L23.7663 20.2883L22 20.7005V22.1895L23.7876 22.6775L24.6175 24.6461L23.489 25.912L24.978 27.401L26.3115 26.3143L28.2516 27.1124L28.7005 28.89H30.1895L30.6396 27.113L32.6129 26.2958C32.9418 26.5309 33.912 27.401 33.912 27.401L35.401 25.912L34.2961 24.6087L35.1135 22.6347L36.8899 22.1725L36.89 20.7005L35.1199 20.2504Z" stroke="white" stroke-linecap="round" stroke-linejoin="round"/>
</svg>
