<svg width="17" height="17" viewBox="0 0 17 17" fill="none" xmlns="http://www.w3.org/2000/svg">
<path d="M8.44499 10.6785C9.67855 10.6785 10.6785 9.67856 10.6785 8.445C10.6785 7.21143 9.67855 6.2115 8.44499 6.2115C7.21142 6.2115 6.21149 7.21143 6.21149 8.445C6.21149 9.67856 7.21142 10.6785 8.44499 10.6785Z" stroke="white" stroke-linecap="round" stroke-linejoin="round"/>
<path d="M14.1199 7.25038L13.3026 5.277L14.401 3.978L12.912 2.489L11.6201 3.59306L9.60478 2.76427L9.14133 1H7.68635L7.21591 2.78764L5.24693 3.61763L3.978 2.489L2.489 3.978L3.57103 5.3098L2.76633 7.28827L1 7.7005V9.1895L2.78763 9.67752L3.61748 11.6461L2.489 12.912L3.978 14.401L5.31152 13.3143L7.25157 14.1124L7.7005 15.89H9.1895L9.63955 14.113L11.6129 13.2958C11.9418 13.5309 12.912 14.401 12.912 14.401L14.401 12.912L13.2961 11.6087L14.1135 9.63471L15.8899 9.17253L15.89 7.7005L14.1199 7.25038Z" stroke="white" stroke-linecap="round" stroke-linejoin="round"/>
</svg>
